<svg width="173" height="169" viewBox="0 0 173 169" fill="none" xmlns="http://www.w3.org/2000/svg">
<rect width="173" height="169" fill="none"/>
<path d="M101 14.118C107.397 18.1496 110.913 24.1415 112.627 31.3142C113.39 36.1496 113.203 41.0237 113.125 45.903C113.116 46.9872 113.107 48.0714 113.098 49.1885C113.074 51.8426 113.041 54.4962 113 57.15C113.755 57.1193 114.51 57.0886 115.288 57.0569C118.775 56.9334 122.262 56.8581 125.75 56.7833C126.937 56.7341 128.124 56.6849 129.348 56.6343C138.827 56.4823 146.859 58.4497 154.036 64.8274C155.571 66.4505 156.807 67.985 158 69.864C158.541 70.7137 159.083 71.5634 159.641 72.4389C161.411 76.7272 161.333 80.3322 161.188 84.9008C161.174 85.7139 161.16 86.5271 161.146 87.3649C161.111 89.3555 161.058 91.3459 161 93.336C160.34 93.336 159.68 93.336 159 93.336C158.402 92.7309 157.804 92.1257 157.188 91.5023C155.167 89.2418 155.167 89.2418 152.375 88.7516C150 87.468 150 87.468 149.379 85.5999C149.079 84.0469 148.791 82.4919 148.512 80.9353C147.75 77.5563 146.287 75.407 144 72.798C139.602 70.209 136.236 69.4748 131.133 69.3636C129.186 69.3116 129.186 69.3116 127.199 69.2585C125.841 69.236 124.483 69.2137 123.125 69.1916C121.775 69.1591 120.424 69.1254 119.074 69.0904C112.715 68.9394 106.361 68.8736 100 68.886C99.9854 67.7562 99.9708 66.6264 99.9558 65.4623C99.8977 61.2608 99.8205 57.0597 99.7375 52.8586C99.7043 51.0421 99.6763 49.2256 99.6536 47.4089C99.6199 44.7939 99.5676 42.1798 99.5117 39.5651C99.5053 38.756 99.4989 37.947 99.4924 37.1134C99.3747 32.5769 99.0092 29.527 96 25.854C91.7625 22.8473 88.476 21.2035 83.0547 21.5027C79.1607 22.3353 75.8748 24.1514 73 26.832C69.9239 31.7171 69.535 35.6258 69.4883 41.1888C69.4703 41.9836 69.4524 42.7785 69.4339 43.5975C69.38 46.1182 69.346 48.6387 69.3125 51.1598C69.2793 52.8764 69.2448 54.593 69.209 56.3095C69.1243 60.5016 69.0574 64.6936 69 68.886C64.71 68.886 60.42 68.886 56 68.886C56.66 67.5951 57.32 66.3041 58 64.974C59.9908 60.2799 60.1626 56.2742 59.75 51.282C59.71 50.6113 59.6701 49.9406 59.6289 49.2496C59.3267 45.0642 58.3758 41.5385 57 37.59C56.3969 29.9709 59.2143 23.9085 64 18.03C74.8271 7.65944 88.2216 6.29305 101 14.118Z" fill="#008D8D"/>
<path d="M18 63.018C21.8168 64.5388 24.192 66.9652 27 69.864C25.8271 72.3495 24.6025 74.2791 22.875 76.4655C20.6238 80.2818 20.1945 83.2108 21 87.468C22.3204 91.3282 23.6978 94.2978 27.0215 96.8354C31.0749 98.7279 34.5805 98.6929 39.0195 98.7265C39.8781 98.744 40.7367 98.7616 41.6213 98.7797C44.3516 98.8325 47.0818 98.8657 49.8125 98.8984C51.6686 98.9308 53.5248 98.9646 55.3809 98.9996C59.9204 99.0826 64.46 99.148 69 99.204C69.0041 100.289 69.0082 101.374 69.0124 102.491C69.0343 106.546 69.0887 110.599 69.1526 114.652C69.1757 116.401 69.1901 118.15 69.1956 119.9C69.2049 122.425 69.246 124.949 69.293 127.474C69.289 128.247 69.2851 129.019 69.281 129.815C69.4362 135.686 71.2768 139.599 75 144.192C78.5688 147.295 82.0103 147.694 86.6484 147.535C90.6932 146.832 94.0586 145.03 97 142.236C99.6326 137.749 99.4405 132.79 99.625 127.749C99.6637 126.885 99.7023 126.021 99.7422 125.131C99.836 123.009 99.9191 120.886 100 118.764C100.66 118.764 101.32 118.764 102 118.764C103.621 120.372 103.621 120.372 105.438 122.493C107.912 125.394 107.912 125.394 110.691 128.002C113.077 130.773 112.519 133.898 112.406 137.365C111.315 145.193 107.121 150.592 101.062 155.561C93.5673 160.448 83.6774 159.987 75 158.862C71.2442 157.507 68.7751 155.785 66 152.994C65.0719 152.086 64.1437 151.179 63.1875 150.243C57.2276 141.75 56.4607 134.804 56.75 124.571C56.768 123.351 56.7861 122.131 56.8047 120.875C56.8515 117.888 56.917 114.904 57 111.918C56.3504 111.928 55.7008 111.938 55.0315 111.949C52.0419 111.99 49.0523 112.015 46.0625 112.04C45.0409 112.057 44.0193 112.073 42.9668 112.09C31.8075 112.16 23.416 110.747 15 103.116C8.74967 95.0604 6.8753 87.7359 8 77.688C10.0266 71.7254 13.1417 67.0906 18 63.018Z" fill="#53984F"/>
<path d="M38.2968 27.1185C44.1843 28.6246 49.482 30.9928 53.5 35.5117C56.359 41.3371 57.3625 46.878 57.375 53.2991C57.3995 53.9654 57.424 54.6317 57.4492 55.3182C57.4791 60.3993 55.9279 62.871 53 66.93C52.2448 70.6024 52.3323 74.0011 53 77.688C55.0221 80.7258 55.0221 80.7258 58 82.578C58.66 83.105 59.32 83.6319 60 84.1749C65.2783 86.5274 71.0285 85.547 76.7207 85.2255C83.4836 85.0178 87.8544 85.9607 93 90.402C95.0664 92.8203 95.0664 92.8203 96.5625 95.3531C97.1322 96.2898 97.702 97.2265 98.289 98.1916C99.4341 100.178 100.575 102.167 101.711 104.159C107.058 113.423 113.179 123.06 124 126.588C129.353 127.323 133.716 127.297 138.25 124.204C142.434 120.698 145.271 116.561 148 111.918C148.415 111.237 148.83 110.556 149.258 109.855C151.765 105.431 152.43 102.291 152 97.248C147.189 94.9001 142.332 94.7194 137.062 94.314C131.339 93.8718 126.463 93.1659 121 91.38C117.684 91.3255 114.431 91.5026 111.121 91.6933C107.239 91.3037 105.718 90.1498 103 87.468C101.798 83.9416 101.673 81.3944 102 77.688C104.181 74.2593 106.165 72.2997 110 70.842C114.824 70.9084 118.188 71.9849 121.562 75.3652C123.346 79.4613 123.311 82.0801 123 86.49C128.529 87.7472 133.89 88.5606 139.562 88.8739C145.9 89.2983 152.076 89.9315 157.062 94.0695C158.604 97.6868 158.622 101.274 157.359 105.013C156.459 107.014 155.479 108.945 154.437 110.879C154.076 111.566 153.715 112.252 153.342 112.96C149.121 120.739 143.739 127.382 135.75 131.722C128.692 133.605 123.004 132.786 116.609 129.32C105.57 121.901 98.4251 111.457 92.875 99.693C90.8306 95.9609 88.8488 93.3329 85 91.38C81.5525 90.9124 78.2134 91.1542 74.75 91.38C66.8243 91.6372 60.3987 91.6755 54 86.49C52.0594 84.6263 50.62 82.7949 49 80.622C48.1131 79.7546 47.2262 78.8873 46.3125 77.9936C44 75.732 44 75.732 42 72.798C40.0745 72.2699 40.0745 72.2699 37.875 72.0645C28.9874 70.3372 24.2037 63.3682 19.3476 56.4012C16.3432 51.5295 16.2875 46.4759 17.5664 41.0588C19.4755 34.9979 19.4755 34.9979 23 32.7C26.3224 33.017 27.6077 33.2944 30 35.634C30.3617 38.3932 30.4298 39.9045 28.8125 42.2355C26.5818 43.74 24.6636 44.084 22 44.436C22.3396 52.0762 26.2554 58.7293 31.75 64.1182C36.2264 66.644 39.9494 66.9767 45 65.952C48.1141 64.2852 50.3881 62.2589 52 59.106C52.8676 50.7679 50.6685 43.4635 48 35.634C45.5835 35.4708 45.5835 35.4708 43 35.634C42.34 36.2795 41.68 36.925 41 37.59C38 37.8956 38 37.8956 35 37.59C32.8449 34.4286 32.5314 33.432 33 29.766C34.6198 27.2646 35.2519 26.7387 38.2968 27.1185Z" fill="#44A26E"/>
</svg>
